<svg xmlns="http://www.w3.org/2000/svg" viewBox="0 0 64 64" role="img" aria-labelledby="title">
  <title id="title">The Opening Lab bubbling pawn logo</title>
  <defs>
    <clipPath id="pawn-clip">
      <circle cx="32" cy="16" r="8" />
      <path d="M24 28c0-4.4 3.6-8 8-8s8 3.6 8 8c0 3.2-1.9 6-4.6 7.2l4.1 9.8H24.5l4.1-9.8A8 8 0 0 1 24 28Z" />
      <path d="M20 48h24c2.2 0 4 1.8 4 4v3H16v-3c0-2.2 1.8-4 4-4Z" />
      <path d="M18 56h28c2.2 0 4 1.8 4 4H14c0-2.2 1.8-4 4-4Z" />
    </clipPath>
    <linearGradient id="liquid" x1="20" x2="45" y1="37" y2="62" gradientUnits="userSpaceOnUse">
      <stop offset="0" stop-color="#86efac" />
      <stop offset="0.55" stop-color="#22c55e" />
      <stop offset="1" stop-color="#15803d" />
    </linearGradient>
  </defs>

  <rect width="64" height="64" rx="14" fill="#101827" />
  <g clip-path="url(#pawn-clip)">
    <rect width="64" height="64" fill="#f8fafc" />
    <path
      fill="url(#liquid)"
      d="M11 40c4.8-3.1 9-3 13 .2 4.6 3.7 9.2 4 14 .4 4.8-3.6 9.8-3.8 15-.5V64H11Z"
    />
    <path
      fill="none"
      stroke="#dcfce7"
      stroke-linecap="round"
      stroke-width="2"
      d="M13 40.4c4.2-2.4 7.8-2.2 11 .4 4.6 3.7 9.2 4 14 .4 4.1-3.1 8.3-3.6 12.8-1.2"
    />
    <circle cx="25" cy="35" r="2.1" fill="#bbf7d0" />
    <circle cx="34" cy="29" r="1.7" fill="#bbf7d0" />
    <circle cx="39.5" cy="22.5" r="1.25" fill="#bbf7d0" />
    <circle cx="30" cy="48" r="2.8" fill="#dcfce7" opacity="0.7" />
    <path fill="#ffffff" d="M26 9c-1.8 1.4-2.8 3.5-2.8 6 0 1.5.4 3 .9 4.1h2.3c-.7-1.3-1-2.7-1-4.1 0-2 .9-3.7 2.3-4.8Z" opacity="0.58" />
  </g>

  <circle cx="32" cy="16" r="8" fill="none" stroke="#f8fafc" stroke-width="2.5" />
  <path
    fill="none"
    stroke="#f8fafc"
    stroke-linejoin="round"
    stroke-width="2.5"
    d="M24 28c0-4.4 3.6-8 8-8s8 3.6 8 8c0 3.2-1.9 6-4.6 7.2l4.1 9.8H24.5l4.1-9.8A8 8 0 0 1 24 28Z"
  />
  <path fill="none" stroke="#f8fafc" stroke-linejoin="round" stroke-width="2.5" d="M20 48h24c2.2 0 4 1.8 4 4v3H16v-3c0-2.2 1.8-4 4-4Z" />
  <path fill="none" stroke="#22c55e" stroke-linejoin="round" stroke-width="2.5" d="M18 56h28c2.2 0 4 1.8 4 4H14c0-2.2 1.8-4 4-4Z" />
</svg>
