<svg xmlns="http://www.w3.org/2000/svg" viewBox="0 0 64 64" role="img" aria-labelledby="title">
  <title id="title">The Opening Lab pawn icon</title>
  <rect width="64" height="64" rx="14" fill="#101827"/>
  <circle cx="32" cy="16" r="8" fill="#f8fafc"/>
  <path
    fill="#f8fafc"
    d="M24 28c0-4.4 3.6-8 8-8s8 3.6 8 8c0 3.2-1.9 6-4.6 7.2l4.1 9.8H24.5l4.1-9.8A8 8 0 0 1 24 28Z"
  />
  <path fill="#f8fafc" d="M20 48h24c2.2 0 4 1.8 4 4v3H16v-3c0-2.2 1.8-4 4-4Z" />
  <path fill="#22c55e" d="M18 56h28c2.2 0 4 1.8 4 4H14c0-2.2 1.8-4 4-4Z" />
</svg>
